<?xml version="1.0" standalone="no"?>
<!DOCTYPE svg PUBLIC "-//W3C//DTD SVG 20010904//EN"
 "http://www.w3.org/TR/2001/REC-SVG-20010904/DTD/svg10.dtd">
<svg version="1.0" xmlns="http://www.w3.org/2000/svg"
 width="468.000000pt" height="466.000000pt" viewBox="0 0 468.000000 466.000000"
 preserveAspectRatio="xMidYMid meet">

<g transform="translate(0.000000,466.000000) scale(0.100000,-0.100000)"
fill="#000000" stroke="none">
<path d="M2030 4625 c-406 -58 -805 -232 -1130 -492 -447 -357 -745 -872 -835
-1443 -22 -140 -31 -487 -16 -621 33 -283 123 -565 263 -824 231 -425 544
-734 969 -955 233 -120 489 -209 714 -247 168 -28 555 -25 720 5 242 44 428
108 686 238 395 197 695 479 933 876 112 187 219 438 264 618 62 244 81 609
46 849 -15 106 -64 321 -89 396 -74 219 -141 366 -230 510 -76 124 -92 145
-189 265 -331 409 -853 715 -1383 811 -153 27 -574 36 -723 14z m650 -341
c249 -39 516 -143 740 -288 486 -317 827 -864 890 -1431 13 -119 13 -381 -1
-503 -33 -297 -182 -659 -379 -922 -68 -91 -220 -249 -314 -328 -281 -234
-653 -401 -981 -441 -127 -16 -459 -13 -588 4 -117 15 -296 66 -450 127 -137
54 -177 75 -330 177 -200 134 -346 270 -494 461 -189 243 -334 590 -384 915
-18 121 -16 459 5 575 75 431 263 799 555 1090 236 235 426 359 708 465 184
68 319 98 513 115 126 11 392 3 510 -16z"/>
<path d="M1330 3643 c-101 -21 -187 -83 -299 -217 -182 -216 -311 -482 -373
-769 -19 -88 -22 -133 -23 -327 0 -235 5 -278 57 -470 161 -593 645 -1066
1248 -1220 195 -50 461 -64 655 -35 498 75 960 382 1228 815 257 417 321 912
181 1399 -71 245 -236 526 -411 698 -107 104 -141 118 -283 117 -93 0 -124 -4
-161 -21 -85 -38 -164 -127 -190 -215 -20 -68 -11 -202 25 -366 56 -250 60
-279 59 -437 0 -198 -15 -268 -91 -415 -33 -63 -81 -178 -107 -255 -56 -166
-112 -285 -165 -346 -46 -54 -133 -100 -201 -107 -66 -6 -69 -15 -69 -197 0
-158 11 -259 41 -379 11 -43 18 -81 15 -83 -10 -10 -62 141 -81 235 -7 33 -25
45 -25 16 0 -28 -60 -228 -72 -239 -7 -7 -8 -1 -3 20 42 175 68 490 48 580
l-9 40 -64 6 c-81 7 -115 25 -175 91 -64 72 -131 203 -195 384 -17 49 -58 143
-90 209 -67 135 -96 235 -106 363 -8 108 5 213 56 444 54 245 64 329 50 408
-33 179 -148 270 -350 276 -52 1 -106 0 -120 -3z"/>
<path d="M1889 2518 c-7 -13 -13 -59 -13 -103 0 -66 4 -90 25 -135 43 -91 116
-161 155 -146 35 13 7 162 -52 280 -55 109 -93 144 -115 104z"/>
<path d="M2795 2508 c-36 -43 -91 -158 -110 -233 -37 -146 -2 -187 85 -97 70
73 94 131 95 227 0 137 -18 163 -70 103z"/>
</g>
</svg>
